<svg id="10015.io" viewBox="0 0 3888 3500" xmlns="http://www.w3.org/2000/svg"><defs><pattern id="svg-pattern" x="0" y="0" width="19" height="19" patternUnits="userSpaceOnUse" patternTransform="translate(9, 9) rotate(51) skewX(-9)"><svg width="10" height="10" viewBox="0 0 100 100"><g fill="rgba(56, 68, 71, 0.27)" opacity="1"><path d="M31.9844 9.44144C33.6014 9.44144 34.9141 8.12894 34.9141 6.51176C34.7555 2.62465 29.2127 2.62582 29.0547 6.51176C29.0547 8.12894 30.3676 9.44144 31.9844 9.44144Z"></path><path d="M68.0098 90.5571C66.3928 90.5571 65.0801 91.8696 65.0801 93.4867C65.2387 97.3738 70.7814 97.3727 70.9395 93.4867C70.9395 91.8696 69.6268 90.5571 68.0098 90.5571Z"></path><path d="M68.0098 9.44144C69.6268 9.44144 70.9395 8.12894 70.9395 6.51176C70.7809 2.62465 65.2381 2.62582 65.0801 6.51176C65.0801 8.12894 66.393 9.44144 68.0098 9.44144Z"></path><path d="M31.9844 90.5571C30.3674 90.5571 29.0547 91.8696 29.0547 93.4867C29.2133 97.3738 34.7561 97.3727 34.9141 93.4867C34.9141 91.8696 33.6014 90.5571 31.9844 90.5571Z"></path><path d="M93.4863 34.9158C95.1033 34.9158 96.416 33.6033 96.416 31.9862C96.2574 28.099 90.7146 28.1002 90.5566 31.9862C90.5566 33.6033 91.8693 34.9158 93.4863 34.9158Z"></path><path d="M6.50977 65.0826C4.89277 65.0826 3.58008 66.3951 3.58008 68.0123C3.73867 71.8994 9.28145 71.8983 9.43945 68.0123C9.43945 66.3951 8.12656 65.0826 6.50977 65.0826Z"></path><path d="M93.4863 65.0826C91.8693 65.0826 90.5566 66.3951 90.5566 68.0123C90.7152 71.8994 96.258 71.8983 96.416 68.0123C96.416 66.3951 95.1031 65.0826 93.4863 65.0826Z"></path><path d="M6.50977 34.9158C8.12676 34.9158 9.43945 33.6033 9.43945 31.9862C9.28086 28.099 3.73809 28.1002 3.58008 31.9862C3.58008 33.6033 4.89277 34.9158 6.50977 34.9158Z"></path><path d="M54.571 61.0559C52.1407 66.0758 53.2298 72.5326 57.2523 76.4375C58.8972 78.0824 60.7312 79.4498 62.6636 80.586C64.9663 72.3147 62.9814 64.3295 54.571 61.0559Z"></path><path d="M46.712 66.8459C46.712 64.8096 46.2671 62.8426 45.4238 61.0559C37.0118 64.3324 35.0318 72.3096 37.3284 80.5752C42.4439 77.625 46.7989 73.1535 46.712 66.8459V66.8459Z"></path><path d="M45.4168 38.9418C47.7854 33.9108 46.8949 27.7139 42.7422 23.5604C41.0973 21.9155 39.2635 20.5485 37.3315 19.4125C35.0295 27.6815 37.0104 35.6645 45.4168 38.9418Z"></path><path d="M54.5779 38.9418C62.9859 35.6617 64.9619 27.6865 62.666 19.4232C60.741 20.5514 58.8996 21.9133 57.2523 23.5606C53.1 27.7139 52.2095 33.9108 54.5779 38.9418Z"></path><path d="M49.9986 45.5991C47.5719 45.5991 45.5977 47.5733 45.5977 50C45.8395 55.8385 54.1588 55.8369 54.3996 50C54.3996 47.5733 52.4252 45.5991 49.9986 45.5991V45.5991Z"></path><path d="M19.4219 37.3309C20.5498 39.2557 21.9119 41.0967 23.559 42.7438C27.4639 46.7674 33.9215 47.8569 38.941 45.4254C35.6639 37.0141 27.6871 35.0344 19.4219 37.3309V37.3309Z"></path><path d="M23.559 57.2545C21.9139 58.8996 20.5463 60.7336 19.4102 62.6662C27.6793 64.9682 35.6625 62.9867 38.9393 54.5801C33.908 52.2121 27.7113 53.1026 23.559 57.2545Z"></path><path d="M80.5727 62.669C79.4445 60.7438 78.0822 58.902 76.4348 57.2545C72.3107 53.1418 66.1729 52.1844 61.0547 54.5801C64.3342 62.9881 72.3094 64.9649 80.5727 62.669V62.669Z"></path><path d="M66.8434 46.7143C70.4686 46.7143 73.8746 45.3043 76.4344 42.744C78.0793 41.0992 79.4465 39.2656 80.5826 37.3336C72.3115 35.0311 64.3268 37.0154 61.0527 45.4254C62.8398 46.2692 64.807 46.7143 66.8434 46.7143Z"></path><path d="M49.9973 23.4971C50.8367 22.0268 51.8752 20.6516 53.109 19.4178C56.1205 16.4065 59.0269 14.7647 60.592 13.8475C57.9664 8.17463 54.1422 3.50862 51.4203 0.615649C50.6482 -0.205054 49.3465 -0.205054 48.5746 0.615649C45.8547 3.50686 42.0336 8.16877 39.4082 13.8365C40.9713 14.7555 43.8596 16.3916 46.8852 19.417C48.1189 20.6512 49.1578 22.0264 49.9973 23.4971V23.4971Z"></path><path d="M49.9973 76.503C49.1578 77.9737 48.1189 79.3489 46.8852 80.583C43.8596 83.6086 40.9713 85.2446 39.4082 86.1635C42.0336 91.8315 45.8547 96.4932 48.5746 99.3844C49.3467 100.205 50.6484 100.205 51.4203 99.3844C54.142 96.4912 57.9662 91.8254 60.592 86.1526C59.0269 85.2356 56.1207 83.5936 53.109 80.5823C51.8754 79.3485 50.8367 77.9735 49.9973 76.503V76.503Z"></path><path d="M69.423 26.1719C69.4229 27.917 69.185 29.624 68.7387 31.2576C70.3719 30.8115 72.0787 30.5735 73.8234 30.5733C78.0822 30.5735 81.2984 31.4676 83.0535 31.9256C85.2082 26.0578 85.8033 20.0543 85.9246 16.084C85.959 14.9578 85.0385 14.0373 83.9123 14.0717C79.9445 14.1928 73.9463 14.7873 68.082 16.9387C68.5375 18.694 69.423 21.8932 69.423 26.1719V26.1719Z"></path><path d="M30.5746 73.8235C30.5748 72.0785 30.8126 70.3719 31.2589 68.7387C29.6253 69.185 27.9183 69.4229 26.1732 69.4231C21.8945 69.4231 18.6953 68.5375 16.9402 68.0821C14.7888 73.9463 14.1943 79.9446 14.0732 83.9123C14.0388 85.0385 14.9593 85.959 16.0855 85.9246C20.0558 85.8035 26.0593 85.2082 31.9271 83.0535C31.4689 81.2983 30.5748 78.0823 30.5746 73.8235V73.8235Z"></path><path d="M99.3853 48.5744C96.4941 45.8545 91.8322 42.0334 86.1644 39.408C85.2455 40.9711 83.6094 43.8596 80.584 46.885C79.3498 48.119 77.9746 49.1576 76.5039 49.9971C77.9742 50.8365 79.3494 51.875 80.5832 53.1088C83.5945 56.1205 85.2363 59.0268 86.1535 60.5918C91.8264 57.9662 96.4924 54.142 99.3853 51.4201C100.206 50.6483 100.206 49.3465 99.3853 48.5744V48.5744Z"></path><path d="M23.497 49.9973C22.0263 49.1578 20.6511 48.119 19.4169 46.8852C16.3915 43.8598 14.7554 40.9713 13.8364 39.4082C8.16846 42.0336 3.50674 45.8547 0.615527 48.5746C-0.205176 49.3467 -0.205176 50.6485 0.615527 51.4204C3.50869 54.142 8.17451 57.9663 13.8474 60.592C14.7644 59.0272 16.4063 56.1207 19.4177 53.109C20.6515 51.8754 22.0265 50.8368 23.497 49.9973V49.9973Z"></path><path d="M73.8281 69.4229C72.083 69.4227 70.376 69.1848 68.7424 68.7385C69.1885 70.3717 69.4266 72.0785 69.4268 73.8232C69.4266 78.082 68.5324 81.2982 68.0742 83.0533C73.9422 85.208 79.9455 85.8031 83.9158 85.9244C85.042 85.9588 85.9625 85.0383 85.9281 83.9121C85.807 79.9443 85.2125 73.9461 83.0611 68.0818C81.3061 68.5373 78.1068 69.4229 73.8281 69.4229V69.4229Z"></path><path d="M26.1763 30.5735C27.9212 30.5737 29.6279 30.8115 31.2611 31.2578C30.8148 29.6242 30.5769 27.9172 30.5767 26.1721C30.5767 21.8934 31.4623 18.6942 31.9177 16.9391C26.0535 14.7877 20.0552 14.1932 16.0875 14.0721C14.9613 14.0377 14.0408 14.9582 14.0752 16.0844C14.1962 20.0547 14.7916 26.0582 16.9462 31.926C18.7013 31.4678 21.9173 30.5737 26.1763 30.5735V30.5735Z"></path></g></svg></pattern></defs><rect x="0" y="0" width="100%" height="100%" fill="rgba(71, 74, 255, 0)"></rect><rect x="0" y="0" width="100%" height="100%" fill="url(#svg-pattern)"></rect></svg>